/* XPM */
static char *result[] = {
/* columns rows colors chars-per-pixel */
"128 128 34 1 ",
"  c #CECECE",
". c gray81",
"X c #D0D0D0",
"o c gray82",
"O c #D2D2D2",
"+ c LightGray",
"@ c gray83",
"# c #D5D5D5",
"$ c gray84",
"% c #D7D7D7",
"& c #D8D8D8",
"* c gray85",
"= c #DADADA",
"- c gray86",
"; c gainsboro",
": c #DDDDDD",
"> c gray87",
", c #DFDFDF",
"< c gray88",
"1 c #E1E1E1",
"2 c #E2E2E2",
"3 c gray89",
"4 c #E4E4E4",
"5 c gray90",
"6 c #E6E6E6",
"7 c #E7E7E7",
"8 c gray91",
"9 c #E9E9E9",
"0 c #EAEAEA",
"q c gray92",
"w c #ECECEC",
"e c gray93",
"r c #EEEEEE",
"t c #EFEFEF",
/* pixels */
";>,113354655641>:>:>>>>><21<>4<<,<<48881<4<<==-;1>;=;=;,>;->>:;;;;;<<<>;>>-*$@@&&&%*;:;;;;;:<>::::-,>;:=%&*&&&$%%%&&%*;;:>;:;=:=",
"%&&%&%&&%=>:>;:6761<<<::><<,>;;;;;;>;=-<44<<->>:==&=&&=-=====&$%%%$$$%-=>>>>>;==;13254<322221,,,<12>;;:>>>>>>>>>,>1<<,;;==*===*%",
"%=&&&&&==;=*&&&**%==*=*;;;==;;:-==%&&&**&&*&-=<24<<244234411<<;><<<,;-;>12645,<23,><1>>2452223487674422>;=>:2434222<5585<=*;;>;&",
"75<<<>---=&*,<<>;;;;=&&&$&&=-;::;;=-;--&&&&->>>;==***;;;;,-=&&=*&&====-;>>,,;&*&%**&$*%%=;:,12>;<<1<=->><,<664<<;-$$&=--;>>26680",
":;:;>>;;=-=-:>>:;====&%=;>1<;;;;;=&&%%&=*%$&**&$*->>;,2<>>>1462;==*&=====&%$$@@@@@+O#$%%&==-;-==*=-:>,<133368458451>:*&&->:;:::;",
"-=&&&$#$&-&**%$*&&&*==&$$#@@@@$@@&===**->::;>-=$=>>1><>;;&**-;=-,67707632<,2,>><12>:;===&=*&&%&**;><,>,>;<<=:-<>;==;--==&&$%***=",
"->:==;;>:>--;=;;&&====*====$$@@&&=*****=&$$$#@$@&======;:*%$&=*==;-;;-**&&&==-;;;;==>>-;:>;=*&&$;>;;=--=>;23<><2<,>-=%&#####&&%&",
"$$&====%%*&&=;,,>><<::;--$&;;=-;;;;<>2,>==;<<,*$&;;;>;:><2>:;-*&+O+@#@$==;;><>;&$;=*$$@@$%%%$$$$$$%@#$*&=&*;;===;-,<>===&&=;====",
"5244><1>>2<,>-=;-;;;>>>>,,>;=;===;;;>,;:><1:>>:><<>::<36665662112<>-=*;;;--%%$$%>15541,;;;-><<>:-;&-----=*&**%$##&&-;;->><,<5544",
"&*==&&$=-*>=&$==;>,,;%$$%*:>:;=&-><32:>>087622464241<,>--$$$#++OO+@@$@$$*&&&&:><1<-*&&$$@$&#@@@@$@%%#$#*=>>=&--:>:<,;=$@@+&=&===",
"=*%$$&&&%%%$%&=*$==;;;;--=&$$$=>,>>>>2443<,<23<><,;>><2222<,=:=%&&&&&==*&&====*=&&%-:;,>:;;;==&$$#$$$$&=$$%=;<<14464>;===*%$$$&*",
"<;;::=>*;;=;,:;=-=;;=%&&&&=***;;*&=-;==-;=-;;-;**=&&&**$$$&$$&&&&##@@@@$@@@#%%%%*&&*=:-;&$$$%*&$$@$==&&&&&&&&&$#$$$#$$&&@@@#$#,<",
";===*-;;:;%;-=****%&==*=;--;=--;>2<1322>-;;>:>-&%;;:;;,;&=====*&&;===%;->>>1>;;;;:136742<<<2<2>>;=$$&=;-;->>,<:*%#$$*:,:<<<>;:;*",
";:;-:===&&$$$&##$$$@@%&*$&*%$$=;;-=&$$&&&&$&$*%&&&===&&&&&%#+O++@#$$$$%&%%&=*&*&=**=;;:;>:*=*>>:,122>;&&*&*&=;-;;=&**><<>:<,<<;:",
"2<,><>,2<::<<1;;-%====;;=;=>1,<224<>>><;=%**%#$$$$$=;>;&-,225462<1246762,,>>:;==*=-%*&&&&$$%***&$%&&%&--:>><33:---;--*-===,12322",
"$##$%&&=;;=*==-===-;&&**-;,>-*;&***;>;;--><1<<34222<,>==&&*==&=;;;;-;,>>:;;;=>:;:;:><<1==&%&&$$=&**&&&==-=*=;>=;;;;*&:::;;-;>-=&",
"><;::;==-;;==*=&&&*&$$&==*=><,32,;-=-==&$%&&&&*%&&*&&;;-=;;;;-=;;=&==*=-><23;;-===-=&%$&%&*=-;>>:>>,=>&--&&*==*->:;;==-*=-;;>---",
"=*%==--:;-===&==;==--=;;*&*=%%%&*;::>:;>::;<3462442221,>>;343<<1;&&$$@$#%-,;;>>;;-=@@$$@+@#$$&*=$*=&##%$$&&==:=::;=;:<:<2:;*-;>:",
"&&*$&&=;;=&=&&%*-&:<<22>;::-$*==;,:;*;&==&&&#@@@@#$@@$&$%*==&=:;-;;;>1>:;>>:-;><2<131<>-;:;:&&@@$*&==*==;-=%&*=-%%%&=:&&&=&&$&&*",
"<;==*&&%@$%$@@#$$$$@#$*=&&&*&&&=&&$@@##@@@$$#@@@@$%$**&&-=;;---*--;$$$$&$$##$O+OOooOOOO@@$##%%=;>:-*#%&$%*=*=*;*=*&***&==&*&*2<<",
"*&%&===&=;=>-&&$$$&&$-:*=;;;,,,3,,>:1>===>,;;&&=;:=-:;==:-:;>$$$$&==;>2563<<>;<>;>>><1<2322<,<1<;;;:,,;==***=*=;<:<2<,:-*==-==*=",
":;:**&;=$##*&&&%%&&&*=>,;;;>;>:;<>><>-=%%=-;>>;==;;::>1<:;:>:---%&;;-<4146662<>-*===:*-===&=*===$$%=;=*=;=-&%&%%$#%%$%$$$->><,:;",
"&%&*==-;;,<<-=;;:;:12>><232111,,,-;>,;><<35597767896853<;;-*;-:;;><,>><11>>;;;1221;;>>11<126542444522,3,>;=*&;:>;;,334<>;=*&&&$&",
";:;;:><:;>;;&:<<<:->>=&*--*;&*=;*=&$$#$$#$$$$$&**;<,,;==;>:->&&$$$%%&&=;;;:;;:;:>;==;;==--:;;==*&&=;>54442:-;><1<><>>;;;:-&&->:,",
"<2442>,>>>6423465441><1<>>><<>><::>;<>:-;--==-<21;:;==&&*;&&%$%*==;;%=&&==*&*=**-&**==;=*;===;;===<,<22355422134222<<>:;;;>>>>><",
"&&&&=%=%$$&*;;-;=-,24231;;;=;-=--;;:;*=-=;;;-;,-=-*&&$#12551<;;==;=&*%$%%%&=-=;;;;--==&%&%%&&======*-:>,<<;:>>1<23<11<1>-=&&&&&$",
"$%&&$$#&;--=%$$$*;-=-=>,<262<<,<&&%@#$$$%=-;;&&*=&&;,><>--==;;;-$$&%%&=>232<<31142>=21<:&&;;<<<>==&;;;>>;=&$OOOO+#&;=%&&$@#@@@XO",
"==&@$$$@&&$%&&=&==>,,>,1<3252>22=%&==-=*****%*=&#&***==;;-=%==-,1<,>;;:>:<<<<>=;;;;;<<<;=;$$&*=&&&=&$#@@@@@@&==&&&&;>;2<1<->>;;>",
">;;>=&#==>;;<,:;-=::===--;;*=<,:;=&$@$#*==%%&$@@++@#*&=*=:<<<>>:===%$+#&&=#$+@&$&&*=;22>&&$$$+@@@%%-=;->,2>>>--=>80wreew061,21<>",
":;-;==%#$%&&&=%$&&&&*$$$@@@#*-%$$@@&&@OooXXO&$&=;><><>><<;&$$@@+@@@@%&-==;;>;>>;=*&$$$&=*;---,,;==-==$#%&*%$#$$@##$#@$&=:>2<<,>,",
":;;;:;;==&=*$&=;-=*&*;;;--=*&*====&&===*;;--&==-;;;*&%=&&*%%>>:=**----;;-=-&&*==*=;;,=*;;;:,,1,:;;:;;>**&&+$$%&&;>;;:>><<1>>><>,",
"+@$$@$$Oo+@@=-=-=-<<;;>;;:;;>;;==;;==&=*==-=&&==&&;;;;;>;-->:-><>:>>>545211<;;<<<2231<,43524442<><2<<;:>=&&=%$%@$&==-&##&;=;->;&",
";&==&*===&&$#$$$#$$$->>;--&@&&=&&>:;>>21111222;-;:>256641;-$$#@@$@@@@$$$=;:4642<21>>:;@@@#$&&&&$$$$&%=*&**-&&*;;;<><>==&*;;>1:;;",
"#O#$&&;>,,,>==:-;:<24687332,====*@#@@&==&==-><>:-<,<>--=*%@$=;-;;;;=;=;;>;&&&==;=&$#$@+%=*#&*--=;;=&&$$$-;;-@@@=;:,><,<;-&@@@@@#",
"@+#$&===2<1,,,><>>;*===*&&*%$@@@$%%$$#&=:>>*&&*==-;<<<:>>;>:&@+OOOOO+$$*--;<11;-==%$##+OO@@#&=->>>>;;<3<2<<1>-:;=%&@@@+$$$$##@@@",
"%=-&=*%$&&@$%==;>>>=&%%&&*-->,,>=-;;:>;>,1,===&%&==;>==;;>-:><;>>;&$$***=$*=;==&&=*=;-;%$**==%@$$&*;>;;==*=&%%$#$$$$@@&**&&$###$",
"=;=%%%&&&&&%##$$%&&=;,,::-**=&$$@@O.OO#$#$$#$$#$&$$%&;;>:,211,;:<<1<,<<<2<1231;;;;====;;;*==*=>><<<>;;==::>>>=*####@@OOOOOO+@@&&",
"#$$$&&-==:;=:;-;=-=&***%&&=;:::;;%%$=:1<:;;:>>,<-*=&===*&=->,,<<>122434>>14<>;;;;;=:<<1224<<<432311>>>:==-&=**&&$&&&&&=**%&&@$$$",
"&%+++Ooo@@#$&&&&&&;>2<>;::>=$$$%====$$$$&==-==&%%$::;;:::->>;;->;*%$@OO+$$#&&><22>;$@OO@@@@OO@$$%&&$@@@O#%&;=;-;;&&--;;<;:::;;:=",
"<,,,:;;-;==;<>-;;**&;-===<:<1<><11<>>:*$#@@$&%*=*===&*%$##@###@@@$$;;;;;=&%%$$@$$$@##=-=;-;*&==*;-*$@@@@$#$*%&&=;>><,<22<244454<",
":;;<1423,;==$$$#%-><22<<<>>>*$$&&*=--;;---==<<<<>><<<,<441<<28800742<---;=>>,;;,,,<<<<<<421<>;;=;:>22,:>:,:><<<:24334>:11<===;><",
"&&%&%**<<<:$###+Oo#@@XXOOO##@$$$$$**&=;>:;=*%&=>;;;=$$@+&&&%@@O++%:;*%&;=->==>;;>1;;&&;=,,;:;;>>>;>>-==:-&&&%$@+O@@$=;:,<<:=;**%",
"<224474422>:,>,<>:$&*=;-;;:;;->><342422566289423<2<,<<<<<,;,<<>>2>>>,:>>>;=;;;-====*=*$$$$$**&$$==-;==;:-==-:-,12<::11>221:;&%=;",
"::;&==;-&=*&&&##%&=---=;;;=;::,>;=-=;;&&&&==-;>&&;=-=**=**&%#++O$$=;,2470rww094<22>-=;=&&=====;><43<2<343<>:,24<2,124q99q6,<>>,>",
"===&*&&==*%$%$%%&=:>:-;=$&%@+OO++@&&$#&=*&&&%&&$$@+#$@@@@##@@@O+=&*&&&*==&&&&*&&$$===;;,11244<>;;&==**&&-==$$$&&&$$$@OO#@+@#$$%&",
"=:>:<<<:>>224352<><:23152,146652322,>:--&&**@@$&*$&$$OO@@%%@O@%%#@#$&%*>22>$%&;=%$%%$$@@+@@@@$%==&=&@@%&=*=%=&%&**&*=%$#$&;;:;;-",
"36668664441>&%$#@@$$#*%$==;;==<,=;,<>-;--;=&&$;<<>=>><21>--=-;>=-=&;;;,<;=&&&==*#@@&::-=:>>,,,;=##$&=-;;;=&%@$%%&&=:--=-=&=,:>43",
"=-;12<<1122<,<;&*&&*===*&&&&&:::>>::1<1122<-:>,,>>;,<2<>--=**&&&=$@##&*=&$%$&&&=>>,>;;*&%=&&&&%&*:<,>>>4468422461><>;;;=;;--;;;=",
"&=--=-;=-;;;:&&=;:;::><<<1>;===&:--;;;:>,,>>:=&&&--;-=*=&&%&**==&%$&%;;:>1<<<>-;==&&&&$$@@#$$$&&%#$$%==:<>;,:---&%%&=&*=*&&&*&*&",
"446564,:-><,2,=-**=%%=;;&&%&&><<,<>;::=,>>;=;;=--=&&>;>>22<22<>:><>>13,<212422222444<<<--=;,<;::*%&&**=*==;>>-==##$$%$&*=-<22<45",
"2645<1;;>>;:,;;;>>>:>>;>;;;:=--=-==<>;=&=&&===&%$&&;;:-->:;;=;<2,;:-=--;<21,>,11<2211222<>,1;;>;;<<>,><242,,;>>43<222>>>=-===-*>",
"480w88853<122>;&*=*&&&%$$&%&**=->=:;::;;>;;;*;;-%*==---*:;;;>::;=:>-:<<,>>>-=-=-=;&%*&$$$&*&&->;*&&*&&$+@&&&$$*-;--;;=;>;>;:*;<1",
":<>>2<3;;;&=-;;=&&$-:;--=---;;----;>:;>><<6085133<<>18qe72>1578508966585334543>32764,,,74<<>-;>:>>:>;===$$$&&$#@@=;::>;<<;&=-><,",
">,=%&>===$$#@#$$&&&&&-=*=&@@+$&&=*%@$$&=&@O##$$#$$$%#@@#&&<,>11==*&&%&%=;>:<<1<<**$@#&=;;=$$&@@#$@@$&&;132486885:&%**=;:>,66464>",
"*&:3<642;=*-;==;;=**===&&*=*-;=-:;<<<;-;<>>;>;<558852<;-=&&$@@$$$%&&==%*&&&&@@++O+$$$$==-;:>:,<2>>;===;--11<<:-;-:>:1,,=;-=>>>;*",
">;;,,2231;><22<<;;=$$&%&=-;,2<1><,222;>1<2=====-&$&&&**&&&&*%%&&@$@O@$&&%&&%%%&&&&%$$$$%@##%&&&&--=&%$=:><41>><>2><444578667866>",
"&**=**&$$$&;;=-==:;==$&*;:,>-=&&=*==&==<<<1>>>:<1<<>,,>242>:>>12><>>,,;;=;>>;-=&==;==>,<<23<<;:=-==>><2<<<>,,<,;;*-::-;--&&&&$&&",
">;>,1111244<=$$#@O@@@@&=-**=*&>-;2221,,,===-==;;;,1<22844232443584124654547622442<>>>:;:,:>,<<,<::-===****;>==-=*&&&$$#$--><<:=:",
",>=%&&&=&%#=>>,>=-&$#@@#@+OO+@###$$--,<2><<::>>>>>>-:::-&&&%%%@@$$%&&**&==-==;>><123,;>>;;>>;-=-;=->><7642><38ww86423<421,<<,<,:",
"==***&&&&$%=><22<<<<,:*$+Ooo$@##@@$@@$#$$$&#@#$&&&$&*<>11126<:=&==;:;;;><,,,222<>:;;======&&=>>>,<::;=;;>;:=*&&=**&==*=*%&=:>>:=",
"42<,:;;--**==;=>1>>>,<<<*=*&&%%&=**;22444<>>,,;=>>;:>>,,1<221,<>=&&%$$==*;:,2,:2<1:<2,<11353<<43445312>;-:;===&&-*&=--;;&*=>2662",
";=;:,<1<<<2>,22<<--&&=><2211285562<1:>;,4542<:;-*;;,;;=;;,;><2<<,>,,;;>2575,>>:=;;::=***%$&$@@&*=;==<:==*->>473114244663<-:><<;>",
"1211>==;;:;-&*,1,<22<<<><>=-&=&;:,,<,<2<><11,,::>:*;>;><2<,<>>=;;>;*===&%%=*&;;:<<<<<>,;,=;;>,>%%&&=%$#%%%&&*-=:>,,==-=;;11,,172",
"@OOOo@@$%%*$$$%$&&&===*&&==---;:><<<,<222<>>;,,>>;;=>-;;;=;1464465422222<1><,<>;;:<2,><4476472=&$==%=*;;><<<,,,,-$$#@+$$$#&*;&*&",
"%$$@$@$&***==&&---&&$#@@+#$$#@&&&&%*=*&%$-;:>2,<;:;>:>**$%;;;>:,><24143223-=*-;;-=**=;==&$%&$=&&&$$$$=;><:;==-:;;>><<=&&+#==*&%&",
":-,-===%%$#$&&$$=--,<<2>;>;><8722466624521,>>,<>;>246558751,:;=$*-;-*%%&@$%$%%&&;===;;;-*=;>>>,1<<,,,:-;==--:,223<2,><268590942:",
"88522>,>>>;>>-,--;=>>:;:*;;;:;;><<<<24<,:::>><>;===&*=;>;;;-=;>:::==*&==;>>,8wq008866867<<-;-;=-::;&&;,14322332<,267864578867878",
"31,::1><<>;;==><52<,1<<,>>;-&&*;;=;,<222424,>;;*$&&%&&%&-;;-;;;-:<1<<1<<1222,,,<<,>>>>>,,,>2,>>>->>;:;>>;;;>>1<<22>,,>><>:<<<,<4",
"<<>>;;1,2,,>>==;>2<1<<>;<>>>>;;>2<<22&&>>:<234<>122>;--=;>;;>:>,1,>>**$$$$$&*=**=;>22<;;*$$&&---=&*&-;;=$**;>>>;12,>>;;:>24443<2",
"-;:$==-=*;:;=&&$*=:;%$$$$$$$%&&&$$*****;=---=;=%;4466432><2147wq0rrttw6422<;*&$$$$$$$$#$$&=;;-:;=====&&=====;;;;;;-><<;;-;>;;;;:",
">::-&&&&%#@##@@$$$%&&&&;==*&===&&;;;>1221<<,==&&$$$$$$$$$===&&*=;>134468123112<>>-**&&&=>,<2>;;<46521>>,>:;>;**->>,246426642,=;>",
"1<3424446::;:,>;><<;;-==*=*-=-;-&=;--;><-;>,,,<*&%%*&*=->,,>><-;*&&#+#$&=&&;:==,<>;;;>1,;=;*>,,::;;>;;:=->:-;;=&&=&&=*&==;:=-:;<",
"-;=;>=:=%$#%%$$$@@$&&$#@#+++O++@@O#$&-;>>;-*=$#%&*&%%%$#@@@$##&%=*-:>-=:;,>><2247456435143<>>>;:;:--===:;;<>;;***&&&*==&$$$%%*=;",
";2,:-&$#$#&;<7766814867852242221:<>>;:,<=&==*&%@@@+#$&&$%$@@@@@@+@$%%$&%%%$=&%@@$$$#=>>1>2466q9822<<:><,=&*==;-:;=&%$==<1<2432<;",
",>*=;=%$$@*==:::,2442<>>>:;:;=%%&*&=====;;&$@@OXXXXo+@#O@@#$%$#$$$%&=;;;>;,,>-;=**;-==;;><211664,,<434w80q0521<<41<>;*:>:-*&-=:,",
"=-;;;>:;&&*&%====;;:;2<<>>>;-=====;<<255762<<<54254<<;-;;:,>,2,<12225<;=;;;::,,2242562,;>;;:>>,>;;,,266<>;=&&&&>>;;======&&$%===",
">-=&$@&==&==;;;>,<241<>>::-;&%%=;;-;&&&=;;&**%&==&***;,:;==*--:;=;&&$$$*%&=*=:-;&*-><;=->>;===:<<<<2,12<;&=====;=%%%&&%&,-=*===>",
"@*&$$%%=:37784<:#&#$&&&=;;=-=->,<<>-=*$$$$&=&&=;;;--*&&&&&%##$$$***==&=-=-:>>>=;:&%%&%&%&&$$&=&&%%&&&=&&;>;=;;;-*=&&==&&***&$%##",
"<2223444113586578862<21<,41::>462434688w807263321443>>&$%%&$&&*=-->;==-=&$&*=$@@##%%&%$%*;&=;-;==;>>,,&&$&&&*--=::;:>:;=%%&&*-;,",
"==;;;;=::>;;;>><>><<324<121<<3677654<<>;;-;;==*;==;;=$&@@$&&&=*-==&&&$%%%$$@$###&*:::>>>;:;>,22<45682:;:::=-===&;>>:;<<:;;;;<>>;",
"<21441,>;**=:-*=&#$%&=-;==&&===*&>>;,346<<690864<3<,<<<<,>,><2<,>:;164443242<<>;-=;->221><<153422-:;&*=%%=;:--=>212&**;<<223<>42",
"=$#@%&&#@$%&-;=$$%;>><,>>>>><1245>>:---&*=*;>><<,;:>--;==&%%$#$%=;=%%%%$&*==;>>,,>>;,>;><4<>>==;;>,;>>>>,12;;;;;&&&=;-;--===;&%=",
"2>><<<;;>:>>;><>,>;;;=&&&=;-&=-;<1<>>;::;&&*&&&$%&$&&&==--;;*&**&*==**>>1<33:===---;*=;;>>>>:>=-*&%%*;<<><><,,;>45w0098q62<:><42",
"777596831=;;>2<>:::;;;>;;==;=>>,123421<<<==-;:<><>>>1432>;<><>=:>2467533,;<;;>:&-;,1<>*=*$#%%*>:-;;;-;;,<144<:=->><;-->>1,>>2124",
"$$$#$$@@@+++OXOO@$$&%&@@+@&%%$===-&#@%%#$##&&*;-;===,44963;;>;>;=**;-;=-&&&&=;;:>;-;:,11>>21>;&&&&@@OOO@@%#$==;=>><1>>:;:=$$&&$$",
"&&%$%&&&=;==&&%&%$$$&&%%=;;:>;>;:;<>>;==&&==*=%@$$&*=*&=>2422>>>:>;;;;;**$$$%$$&**=*===;;*&==&&-==&&%:212,::;;;;-=**$=;*#$$&&$#&",
"-=&&@#@$$&%%%&%%=*=====-;:>><>;>13434221<321>>;;:;-;<2,;;;:<454,>=&@@$&-;;;-<:,22<12<,23;:;===&=;>3324<><;,>,:>=-=-,,,>:==><24:,",
"=&$##@@%%&=:=;&&&%$%$$$;&===%@@@$<>;-;;-;-**:>><<>:;-112>-==*$*=;>>>,>,,>:;>;>,>-;=%&$&&&&%@#%%%=&$&&&%&*&*==:>;,,;-===&&&&;;:>>",
"*%&&=:==;=*&,>>>><>;;;-=-:;;==&-----><<<>>;>,,,>-;>,1<11<224466421,:;-=-----&&*->>>=&%%%;-;-&&:<<1>>22579066366232:*%##$##$$$$&&",
":>>:;:====*%=-=;:=&%&==>1<>>>-=-==;:=--&&&$$$$$@#$$&%$$$$##$%&&==--=*&&&&&$%%$$$*;:,>>>>>:;-=-&$&---*$#@#->>;;;-&-=$&&%&$&*$$-&;",
"444663>-&&==;-:><<<,,<::<<>>:>,246622<1,;=;=%$&$%&%&@$$$$$$$&&$&$$$$&*--><>>;;1>>:-;=;,<>-===;<<;>,>>;-,><:-;;-=:-::<,221<132424",
";---&&&&*=$&%&;;;;,<222<:*==;1<,<5444732,==>>:;<<<,;:;--;*>,442,=$&&%%=&&-<<1233452253422<;-=*->:;,233222,:;-*&&$#&&;=;>2<;=;;&<",
"$$%%=-;=><3128867<344242;&:>>;:--=&%&&=%=;;;:-;;=>:,,1,<>><456821;===&$%*=*;;;*%&%&;;;:<247845785::;$$&**&=<<2122>:,1>;;;>:-=&&&",
"$$%;;-:<<>-;>>;;;=%$&&&&&&*--:====;><>:>:;=;>113222>;=;=-*=*&&;&O++$&:;=++O+@#$$&;:12224,>-&&&$$%&&&&%##&&=&;><1241;-&<<,;:;;-;$",
"=&*=-;;;--;;><3>:-;=&$@$&*=;-;:2<<12<:>;>,:-%%%%%*=>1-&$*&;>>>=&=-;;>;*%$%*==&$@@@$&****$*=;;<<>==-;;;;&$$##*=:;&&$%&&*=&&$*%%%&",
"&&*=&&=&==;:>2>>>><<><:21<---;;;=&&%***&=;=%%&&=>><,;*%$&&&&-;>-&&*-;;&*==%@O@@@@#++++#$=;:1><>22>;-=,<<;;<<<<>::;>><<>;=*&=%%*&",
"-*$$*&==;-==--==*&$%%%&&=;====<221213<<,,2::,;&=%#$;;;->>>;-;<<4579677788721<>==&&$==**=-->:>>>:>>,:>><2<<<><-;--=*&$&##$#$%&&=;",
"&$@+$&*%&$#$#&;>;;*;;*=-*&&&$&%%#%*;>444311<>;=-:>:>;;-:,24<,4356641,>,>-&=%&=;;;>,,-;:,<4>>>;;==><222261=346621>>1<-&%@$%$$@@$$",
"+o+$$$$&&=>1>;;*=$$%-->112,>-:;->;;;*&&&&&;;:<>,>:><<<2<44<2<>>2,22>:-<>>>;---=*==;;;;>>156311,:=$##@$#%&&&&=;;=*%$$%&&$$$$##@@+",
"1<2,>;;;;;==-;:>;&$#$$**=*&&&=;;;%#$%&*&&;;=>:==**=;1662,=-=$$@$$+@@@@@+@@$$%$@OOO@$&&&=**$$&*;>>344254642321>>>,>>:>;->-;>>1<<<",
"@@$&%$@$&:>>1<>;---&-&&&=>><<>>;-->>>-:;;<2<>;;=>>-->>:><:=*-:><>==-><368974421><>:2<>--&==&&===&&%&&&&%&$$#$$=;-:=;:,;;&$%=&*&$",
"*%$&&&&&=;;=&==%*&%$$&&&;-=&><;&&&&&&%$#@@#@@@@%&&*=;>>>:=*&&&--=%=;;;-=:<,,<:<<<<2;;,:<3554442<&O@$$$#$=--;&=*=;=&=;;*=;;;=&&$%",
"&%&$##%&=&::><,;;,;:,:*=><<2<>>>--;;;;->>:><132<<:;;=-=;>>;-==:;:-;>:<<<>;>;;;;;:>--<<<<1>;--;>224654262<:==*&&&&==;=**==&&&*&==",
">>>>>:>>12;;-::=*=;:<;:>3286673563<<3>13:&;==;;%%@#$=-;>;:::;><22<;:;;::;;=-,16544<:>><,>&%=211<:=-:;>:>211>:*-*=;;,>=&&===-=:;-",
";-=&*-===$$&&&%=*&&*-==>257<<<--&&&&$*%*:233<>,>:;*&@+O+@$$;-*$%%&%&&&%$%&*$$@#&&==*;>=:>;;>><,<44522>>>*&-*=,<2322>>4>;-=*-=-;;",
"--;;:;-&&&&&$$&&*%&##@O@$$$@+##%%$$$=&*=;;;*;--<<<>23>;;>>><11<,=&&$===&*&$&**&&&&&===&&*&&%$&;>;;,:;;&--;:,:>->:>3422<<;;;;;-=;",
",;;<<75211<<21,>:;;*=%%%%=;&==*==-==&=;;13552<,;>,1:&===&*$$@+@+#&**%#$$&&;:;;*-;;;**>-==*@O#*&&@@O+@&*==;>,:==-&&&*;;22<4222<<<",
";;=*-*=*&&&#+@@$$$@$&%$*==;=*&;>>:=*-;>><>:><468445654341<:========&&$&=*-$$%%&&-=&&$#$+@$$%&=-***&$$$$@##@$&&@Oo@$$&&==;&%=-;:=",
"::>>;=%@$$$*%%&&&&&&&%%&$&===;==:<;**@$===*$$*=;&+@&***=;*=-&=&=-::,;;=-=>=-==*;;;:>>>>:;-==&=:><:;;*$%&==*&&->;=%%&==%&@&&&&==:",
";<;;>,2656774422,>>>23444267856344<<1>:>>;;-==&&-;-*$&&&*&&*:**%#$#&=;;;;;;453>>-==*&*$$$#@%&*=-;;*===#$$$%=*==;>>;:==;:<12443>=",
"&%&&&$+OO$&%==%$$%&&@@@@+##$$@@$#$$$$$#$$&*-==**%%%==&-,<<,:>>,>*&&%#$$$@@@&&&&%-%=&*==>><<<14<1<<>;:11:>>>::=%$@@o++@$&*;*&&*;&",
"%####+%==$$$$*=--&&&&;>=$$$$$$$$&=->22,<<<>,:>>>;;===;;;;<<,;;;>>:;:>,4649767222<-=====--<22:;;-*==&-:<>:<,,<:=&%$&;:,<>::;=;&$#",
";=;=-==&&&-*;==;==;;<,:;;&&&$$$%*****$$&=*&-;**->-;===&&&;>;:;;*=,:,,1452<>;:<>>>:;;=:>;;;==-;;->>>>=;-;:;;=;>;;;;;*=>::,241;><<",
"44260666322<2;--->;,,,><41424<>>>>>;>;;;==&&%%&>,,<>>;:-;*==-==-==;>>>>1<2<>>=&&&=*===&-:>-;;>1<221<><25qw84421<<<<,>;;:22454424",
"-;><<36545766435q6q8qw8765>>:><24422,:>>>>;<<>-=;==&&=;;;;>:=>,<<;;;=;;;*=&&**==;*&=-:>;>1<<23<<>==:=$%-;;;&-**-==*--=*=;;:;==;:",
"::>;>:&=&-;--=,<<<,&$##@@#&%$$@#==&&&=*&*&$$$$@@@&&*%&*;>:>,>:>=*$$%&%$&&&#@@@$$$$@O@@@#$$$&&$$%&=-;*&===&-&=&$&#@@O+OO@$$&==:;>",
"&*%=*&--==-&*==&%$$@@$-;;;>3<<>;===;;><1,<,1,-&***;,,;:=;;;;=->>>:><<<2<<,-*===;;;==&%%$$@OO@@+++ooO@@@#@##@+$=*%@@&&$@@$===&$$%",
"-&*-;:,2,:;><<<,:;;<<<>>;;-&$@$$$$%&=;;,<<13232<::;**==**=&=;;:<;,44311<230088862<>>:>;;;;*&&&&=-<<2>=-&;>>22122;;,;==*&%*=====;",
">>>;<<><,2<12231;;;:;:2<1;*==%%**$$@+++@@@@@#$%$##@@@+$$@@%%*;>:-==>>,>>>>;;;;==-;-=;;>=*::<1<331--*&*&&%$#%**%%$$$&=:;,2>:;-=&&",
";:,>>><<>>>267689668854412531<:;==-;;;;==---==&=;2267461766422244456433321442<,:=344,>:=$###$$&*-,>>>>>-=:::==;;;***$$&&&=;>>->>",
"<:,-;>=&&&*;222;>::=*&%%&**;--;-;;-:-==*$$@@@@#$=:<222,,1;=;><11325456<123<,>:>>;;:>:;-=-><<===&&&*;;;;;-:>>;>;**=*&*%%&&;-=>;;<",
"21<124443442223::>;--><>>><<1222<<1485644568842,:<2222,3<1,124421<,,>,>-*-;;-;;=;==&%&$$&&*=**==&$@$-,<24651>>-,;;=;-==->2<>:<<2",
">==;;>;;*=-**&=&&=-;==-=**<,=&**&*%&%%$#$%&&&;==;>>>>;=$%%*==&*-:>1*==*;;>>>::%$%**%&&*==;;-=-===-=*%&$&===*$&&&=;;;--;;;;==:--:",
"=*&$$$@+@@@@#$&$$@@#&*==*&%$#@@@@@$@$$@##$%$+$&&&=====@@@$+@@%*=;:>:>>>14646521<:>;=**&++O+@@@@OO#%=;:=&->>:>>;&#$$$$@@++++@@@=-",
";-=$%&*&=&$%&&$$$&*->>::221-;;=-=*====;>>><>,>=>1<1<<<24543>=*;,222>;==>,>;$&&******&<7722<7545367,321;;;;=&%*&%&;;;;-====;>;;;>",
"@=;==&@$#@@  O+#&&$&&&&&=&&&=;===&&%#@+#$$#$&=-;;;>=->,<162,:--=&%&&&&==-;,,,>;:-#@XXXXO+++#@%&=*&%$&&&#$$$OoOooOoX..OOo@+$&;,;$",
"--;22:;>>>:>>>,;:;:=#@@$##O@$$@$$@+#$$@++$&&*;;>;;,13>::>;-:>;;>:--=-=-=&$%%$&;;;;==&;;>>,:;-;;&$$&-;1,,:-;--&&&>:-&-;;&&@$#$&&%",
"<,:>:>11>:;;;;><<4342<,<;,>,267221<34<;&><<445<;==*;*==;;::;;=;===-;;>:;:>;=*&=:<<>-=&;;;>,,<22<,,><;>;<<::::126765<1<<:<57341<,"
};
