/* XPM */
static char *result[] = {
/* columns rows colors chars-per-pixel */
"128 128 71 1 ",
"  c #9A9A9A",
". c #9F9F9F",
"X c #A5A5A5",
"o c #AFAFAF",
"O c #B6B6B6",
"+ c #B9B9B9",
"@ c gray73",
"# c #BBBBBB",
"$ c gray74",
"% c gray",
"& c gray75",
"* c gray76",
"= c #C3C3C3",
"- c gray77",
"; c #C6C6C6",
": c gray78",
"> c gray79",
", c #CACACA",
"< c #CBCBCB",
"1 c gray80",
"2 c #CDCDCD",
"3 c #CECECE",
"4 c gray81",
"5 c #D0D0D0",
"6 c gray82",
"7 c #D2D2D2",
"8 c LightGray",
"9 c gray83",
"0 c #D5D5D5",
"q c gray84",
"w c #D7D7D7",
"e c #D8D8D8",
"r c gray85",
"t c #DADADA",
"y c gray86",
"u c gainsboro",
"i c #DDDDDD",
"p c gray87",
"a c #DFDFDF",
"s c gray88",
"d c #E1E1E1",
"f c #E2E2E2",
"g c gray89",
"h c #E4E4E4",
"j c gray90",
"k c #E6E6E6",
"l c #E7E7E7",
"z c gray91",
"x c #E9E9E9",
"c c #EAEAEA",
"v c gray92",
"b c #ECECEC",
"n c gray93",
"m c #EEEEEE",
"M c #EFEFEF",
"N c gray94",
"B c #F1F1F1",
"V c gray95",
"C c #F3F3F3",
"Z c #F4F4F4",
"A c gray96",
"S c #F6F6F6",
"D c gray97",
"F c #F8F8F8",
"G c #F9F9F9",
"H c gray98",
"J c #FBFBFB",
"K c gray99",
"L c #FDFDFD",
"P c #FEFEFE",
"I c white",
/* pixels */
"FKFDVVHDAFDBKBDAFbvVZBxlSBNADIMZGBSHmKSGHMDGFSADMZGAAnMSAlmNkwuhkkcZBnmVADZMzZVVPBFLBFGCALSBDGnKBDAMSJDBGHFAJZBSHNLGFHDSHDDZVAFJ",
"SGIHDGVZFDSGBANCSNCNVvmVbVCHAHFLHDFAZFGADSHZVFZDGZASVMNZsjncnffNznSIVhzBvVNnVSGGHLJDmFGSAZBAJSnZBSmNSSFCAHCGZZSJHDGJGBHGSGKVSGSF",
"SSCCHDHHnDFmmDZFFnNAxSJHSDAGIDVAHKPAZISBBZAVGHFCAnzBSVDbbNraigqVaKGDBxnclNCCSBSZSFZCFSDVCbZSBGCZBGHSmKJSJSSZFSLSVGHCBGFSFSFHCACK",
"ACFSAZFDGDGZKGAZcvGCmGDABCVSKSDFKGCGPNADBmDKZZZDGVcJMFMBlraDBrvZuHBnBNjckmMbzbZSJDBDADCAAVHKCBZjxZSCGCGKPNAAJHDSSADMCDDFVnVHGPKN",
"MSASDVKSSKDKGDNbnCVmbbZSJAASFGFAZSBSFDAbJGcFCSHZCBnDcZnujdcNdAnsGHNBvnanBbammDZDHDVAZBnDASZVVMFVnnDMbZKFAFKBAFAJDNCDDCVDVNSIJFDH",
"GVDKFHADKAAFVCmMDGMZMIKJFZFHGKGGFSGGJAGSAZmGDHNmMCHDcvwyVzMfmMahAbVMCgnbmzsMNVVSACFDCMCVCBNNABnMMKDSvDSZJDGDBMAnZASVGZAHbMZFSFHG",
"CFIVNGSBSCCSDNNCFlAmmCASCABFGHDJFMVADCVSLDBNSVZSVZVjnmvlf9FCCMBHlmVMhMvVcVMzDmnmBGGDnClcHVDBVbSCZMASSHLCBKVVNBDbASmvSBKSZZVCHDCA",
"SHGBZFFSSFPFCADGVAmVbIDMZSGHFHFHnFHCZJSGANZFKDAKCmNZcMVMe5ZMlzyy6xBmCvVClACnLZnMCFISZVHKVCZmSAHBBBNSCSZZJVFNBAVZBCMcBNCCCAbZNHLF",
"NCBVJDCHDHVBAGDAMCSIKNCAAZDSHMJFHGKVAZBAZKFAGCSAVAIVlAvxsVsjVle6.dmgaivxxlBMKNAFlDLAAAFnZCNnSCDbCZZZBJVHDNFNZmmZmjNxBJZzJBZPAKJA",
"KDMAFDHKZSBGVSFFmnHAMCGSJHFGSBFGHAZGZBZMJGGPGBSJFVSkgNclcldnur34CCA975SsxSLSBMSBVKAAVSFAJZNDSBbDBcnCCZZDACnbnniyzjxmZFmAGDAHJDAF",
"VZGIZGDGSSLZVFKMnSFCHHVHBVAMADZVJIFZSBDJPCMJHZHJMZvzmczaMunp,apznzkwqigagGMNBHSNnMAAALSGSASVDAbDvgZPANNNZZMbhs9VMzcKCkGZVLAADDJD",
"cSIGZGDZMCAMSSGJZACCABCAVKBJGSGCZZmZNMGDVNHMGSJFSmkbAcjqrMZp9kxusqi,t9fAvmMBAmAcDZNNFFJSFHFBVGVcncNNBNCCZZNcsnahdymCBGDCJDHZAAZS",
"NGCZMZVDZSzVZLZAAZZHnHJKGMmSFFFVSCSSCBAAGFSJCVZZBmjkNizyMVZSGjhuee;%c2lvZCbJvVHLSCvBCPZmHGASmBSZnAMVBNNvBgMMlr6nciDcNMBBAVDBADCD",
"PFZNGISDMNBSCFnKVMZSZDDMcnCGDADDcGNVVIHFDDMMcSFCnvMcckccDbCDcex8t74tb1HbcMDGlCHBcVBIDGJGSZZAbAAcgZxCkZmcxDmNct9hNVicVDZCNKCABJvG",
"KHHHSABHDCZmCDSVmNLxgCCanFSmVZmnVScLJCFSVSBvxSAJnVBDAzjnCHCcsjcchhc9fyzkCAnVZVSVmbmLBZSSACVACCVMAmzMVZMdMBAnczxbHVMFDmxnnSvLGVDC",
"DANDGDPZDmZZDMCGFHAmkGNCSBSVZzcVZzAAlcGABGkvKFCSVCMAAfVVZZmkcZhMBVpZr1dJBldzJCBnbZZBMCFDCGSAVSZHxdNnBbANbNbvkNlvlAMDNcdnVNMHSDBD",
"FNNLFDDNBVHFGFCHBcCcNsvcnAMAbsjmsmCdcLSVmMhSSKSDCMZGFcLCGBjvVVMiVv9affVmVlDDznzgBVZbNAVCVDDSJBbguczvkhdkucvmvmACvDcGhkxnfvNnNSNS",
"SGLHDVJVCIJGSZABcMCcVlVlzVDNhdCgtJjgJxhAAjzlDFGHZZVSSJVABGcBNNACAjfBCnDtmLGznMVCZZczBNBBCZZDCxelBlxmnldfbChmmCMkdZVNkdBmhCxFBGBB",
"FZZFFFSSFZGSBSDCFNMtzFVkvMbzjwdxhncAnzMAVVNJHHAGSAJVNPKAMjmFSCvBbbxpKmlFCJMDCCBZbbAFlBZDmAPJMbnblccglbNBnjnAxnCgzHAbVmlxVvbnAvHD",
"MHZDDDNBZMCHDDCCLFbnVBhMfNvvuKmcMFZMlMhNmZvMSAKFJSDAJJAAxHSNVSMmVnMAGsvxANMDbGGmBbcNcZCAPAFGBZCxCfZsmNjdvDBhHDbkvcmmMNnMnZHMAACV",
"SBSHScCCANGGABHKGZNGSZbPSBklDSsGACgbCkjKMxDZHAAAFACBADMNNKDCAABBZMCbhuClVZZmVDBMSzAcCbbJPFFFGVxMSHNHIbfJnvAIAleNdsgFngxCIMnCGDLJ",
"DHHCCFbMZzHZCVSCBDCSNBmISxbMVZCybbMmZBDCbDVSDZSIGZAAADcDSACFFAZGCCMkkVFDHFbNBBvVcNVMAZLKNCKHHFALZZjVNMVmnVmPCxujajsxVScFMDKKVCHD",
"DDZDDcmDFZbmCFFMZxDZnxxZxxjuJjpppjzVBcNBBHCFbMDFHCFFDGDMASDVbJCGMVlnJSNVVBnVCANHVvVmVGDASFHAACIVmNLGzFnvmFJSNMzsfGNKGnHBLSACBDMB",
"SALFABVZmvlMCACHNHnScBNffacMg7d2bjhkkbANZGVBHFDDFGDCDADGAABJFGDFJFDHmmCzAjBBDDNzgAMBNCFDCFDCDBNcDCVVCBLGmLVcMCzxdDBbhVBNZASZGAFS",
"DHGDSCKDGnlxvAHGGMZcvvlgvczMvf7>a8rsVSjnnMNAFVGABGHSDASDDvmLMCLBSPFnDZAcDvZVAvmjNxNmnFBBGIASAGHZGlmNFHSZACANmMgsccFNCvjFADBAACSL",
"VDNZDvFMVZmGLGKCNMDCNvMvmxanpw,fyrZkJbNmzbbSCDCCZmGSFSJCDVKCNKNHFZHHVBGBbACBAbCbANMNGFNVKKDSGABDAlAGMGCVBVcMDVvxZgAAvVNvHCGBNCAJ",
"GNCHHFSVFAGKAGCnGBZNccmjfjwsAlCioLqCcmlkGcnKvBNvSCDVBFZGFSCHGCKGCAAAmJDZVGmCVHSFKZGPZSAFGKFDNDDFSNSZPGNVAAFDZMnbDFSvdBSKMmLxSDGZ",
"ZFBZSGFBBBALZASDHSnjzcfeskx4xHM8rhAdjdfnZMHxnNlZCMCVSNGDFAmKSAJDHGFNVSmFGjZFPCmZZLHGJSADHGAANLmACFSJFbAVHZFnDGSMnlNjnmMmDHSDLSSZ",
"KFADAGGNDDSSSHFAMBBvkMs8V6yOkAhssCJlnNbNNnknmvCSBCNFFBCGZVAJSJCSCZACZbDLVVBGHCHDSJBnMNDFFADLHDHKKDZcZNDBGZCCJZDBbAGVVmVVDZVGDAFS",
"CLFBCFZFNFmAFGSHZHNnxnffgnkscv:gnBvxixgMBcxNcJNBADAVBZCDNCBFDVCFKJKFCmDJZBGIJLGSDFZCNFHJAAJDBBJGANbnCCFSDPFSBFMNJDFAASHPCZIGZFmS",
"PAZFKZCSFVZVFDPSBGbSzzckhnmtm8ucrtbdpBMvldzFpSbVCGMSVCFABVADCZJCFDNMCJSHJALSZGBCFCVVDGAJCCKVLKFZACNZMJAHDGZSCGZMbbKCFGPZAGGGVBZF",
"ANHKCFVZFCGHDGDANGAHSSbBbj3ikg7@HrvvjhMNDMHNBCFADABNMMFZBFSGJJGGZGGSIHDGAFDDVFJFmbFSHBBACnDFGZFZVSZASFJSZHLDDZJANSJDMDDnmZGLBLAF",
"HGHGCZMICFNDZZVZBZGCCCHMM6ikvj#vdpVnbSAagfvVFVmSSbSCzMGnKFAAASDSSBDISDZGLCZSLSZABNnSCDSVBZZCNVVAKCDDJBGDGKSBGCVCCMnGFNVlSKSSFGZV",
"DHBLSZCGSACNZSCMFLIAMKNSxcaVipfBgggCZmjctmlJBnMDSVbMVxmCJGKDZGZSGMLGKJSDAJFKFLFANSDFSBFFMPSSGFZADZHGFMbBDCmAFSAcZGVHADFAKNVFASGI",
"ZSGHLGMVCMVDFALSGKKKAMZFZlmmkvkMykHcdBDlzCJvVsDZBbbcjtvGVZAJHSZGJCSGASVCFKCZVBZFKVDKJBASGGGDLSVDFDxAnNLFBmKCvCCCSCABJVDGAZKZGDSD",
"KSDDASASAFADBAHHAFZZSFACMvssBNsznkxgzbjkVKCzxkJDhCAnlvCGbAZADVMGJLFbVKDGADVHGSKIFBACDCmZKJDDDmDVSGIJCAJHGKmNCZSBSACDSSDKZZGCCCAC",
"HHZABDDBFCIGLAZJDAAGGVKASGnAAhldv9l8Cd6zDlnxzAHCVZMBbkCcVSSHZGJSDASVHDHFJJHAGHFDHASASJGDJFKJADSVPADCBLVVSAnKBAGCFVVBVNHSSmFFAZAD",
"CSVSGSASGHFFNGSGHSVGBMGFFJNAZZmvNnZxBbucgayyvCZxnVmhZGMJHDmAJPHFSMFAHZFLGASDHFZHGZFLLFMFSFGAFAKZDZDNJNVZAAHDVGZZCJZCBJKKMCISSKFD",
"JZSKDFJDDFHAHFACGGGCvAGGBZBSBMBCCmvzxlZbxcfyHlncABjvHAFFcMSGFJJDZSSLJKJCZJDZCDJJGDGSZNnABGSZKDDFAHSDCnZJCBMFSSSSGDVBBJmVDZDDKAJD",
"DGLCJVFBAVVBKFGGFDMBHGSDZmZmnBAzddNkxcnsxtpHxzmnvAmnKBMvSHKSFKDLAMSDCGSVGHDCAHHACKCMLJGCMSVKJGJNDJGAFSZMBHAIFFCZGFAJMABFDZVSKZLK",
"GZZJZHDFBSFFILHABZDBDMBNNCbbmcxitaMiAvcjnMIvpGBnnBCZACbGJGAnLFAZJADSPGCDBBFNDDFZHZAZFAZmnCJFDHSMCACZDDVVADGCmKJPDBZHZAFDAScDMDFC",
"ADFFHGLHVKGJSVZVZHSKGDAVcVFGxvClazxjvvVaccbmKBMAMxZSBCSBDVFVHSDHGZFZGHAJAGmAFGDDISKAGFSBGKPZCSSFZNnCDCZCBBSCLHAHGFDKAMZDFVBMMGCD",
"KAAFZJJBFVCDSDCCADNCIZmMSAxNxZZlbFgkcBrdFAAZVznzMJCCDAVSVvbVHGDFCHZGASFDmAZHAGDGSSCDZCFZKHDZZGmCCCSASBSCFFFLSVDHDZJZJSSHASBABDFD",
"HZBGFHFDLDFSJHBGDDBSABMNNlJNAHmBxtaBBVlCcvnbgnpNVSFAACHNcNSJSGHFCZADFFHCSFZSKHZDNDNFCVHKFBAPFGZSJHKKBCDJJDPKZDZFFDSDAADSGBFnGJVB",
"ZGGSSDJFFJDAIANSCHJSLMNMNFSMKnNhxCDkZMAMbnhczNjSgAZNGHBnMCBLSHHNFGKCJFZSDFAPKJGFHVmASCSVVCJJABHIDGGKCZFGDDJCJHAHFCJAbSHAZGSDFVAD",
"GZDHSVVJFFZAKVmSVLDJJVVSVFNvVVLCmHmGZZVzBMbzVLMcmCAHGSCFVLKGZZKGGHHDLSNDKDAAADAGSFVFJDCCGSFDCGKGDKGVZFSDDDGGJSHDGCVKSDJDHJZFKAmA",
"GFVGGFCDAGJCDKLILFVHDGJCGACBCLZnVDBbDjBAbDbVCcDLHLPKVDKBBDGFADHKLSCSFGFAFGCSVSDDFZSJCKACFSFJSHJCGKJZDZAZGNGGCDHDASGGZPHHDGVDVSAC",
"DbAAVJGAAGZnPZKHSBADGZDVSMSFSCCvDCNNmMKVcCCBfZLLHJJACGKABnAFJGHKGFDSHSAAFSACCGVAJFJPJCVNSSAMAVDSHGDSFHKFGSDFAZSCDGFAFIFASDBSSLLA",
"NCFNFCLSVKSGGSVVGDFJGMGbbBSCHNFHDSAnlmknCAaSVNDbVSDBDFSZVCHCGADGSKPJCbAGLBNDIBNAKGJVBMJZMVnFAvGGVSDGGLFDHKBSGFSZAVGDIHAZSVSAHADZ",
"DNKFSFLDDSVNMGDSDADSBVvmCcADSDVPCIMNMMNZmbnLDBFFFVDJFmGAZSCFLDSMIPGSSVBNnNnFNBCLFAZFDMASDVvBCMDDSKJDHDACSJJFVKGPSGFSSHCACSDSSSSC",
"ZGANDGHHAFAFLVmACZBBbbkZcZGZLLGHSHFAVVSNcCCNCSFCBFFFMSJJHFAHGDAHLJHVASMNnZBBNVKFZHBDAJFGDBASFFNDCKADKSHBSDNVPVDLSHVDBCVVHGAVSGGV",
"BDAFIGCGCMMSnCDCAHVmBBnzDLFFSJPSFNNMmJZHCVLZFDAvZDAVCPGCHZNIHADSDDGVDDDNMnkCMSDZGHAFCCVDNMGnlBmFFAKSDLCGZVVFSBFFAACKFAPJGDHZHAHF",
"HSMIAVVDMcAVVFCAHAZFNbnNFJnCAJZZSMGSHDSSANDALZCSLDCDHvDCPCVHGbJDGDDMVncMZnDGZHAVPVSJNnSDVAMxBSJFJSDFKADDBGVSCJGDZSJZJFGSDZHFHAFG",
"mCGFAVKNzBNmBDZGHZSDvmxFANFMZAvCmDVSANCGVAGCJJADJCSGASGSSBJAVAZVSHNDDvbCABLCDFSFFKFCZAJKDnBCZZFAZnSSnCJDBNAVDLCBSHSLGDZCHSFZSVAM",
"VFSLSZJNnMbFvzvZCMKANzfZBDVJAmMKDCnnNBCvFSAVADGFHMDGAMIJHDBZHPDAGBIZVVDSZVVDKVDSZDKJFPGDmKVbGDSDCBKDFDMNBAMCFHAASAFGFFAZVAZJAHMH",
"BSJDHFHCVMSSvbnMBAmZJMNMmPSDCAFVnJVcCnvcDSVLKLDSDASFBHANDJDJZJCBBVANZGDVBbDCAVCLGSSZHnxHFFDCSGFJmSZZZMFSAmLDBIAZmBBASAZAVGCASZZS",
"GNZSMDvMBskxAMDCmDCVMMVZmHBZDFDvAFzcBBkVGGFALmvKDFHFZFSFFFACFDGHHAVZFCbzcVCAmSGSnVFHZzDBDZHZHZHCAGJLVmIZZCFVDSMSSSSJFHFSPZADADCZ",
"FmHGCGGSvcxMFMZCmBccCAmSDBzcmZHBMAsVCZzmDnADZCJPIACHGGmDDNSGCHFFMbBIBvCMZxNDFGDNmIHGDDDDZZCKDCABDSFZBGDSSZCVSIANSLGSSHZFZDJbDKSZ",
"BSGHSADCJFJIZmSbVcrZVHSSbvfMnVDDnvmjsdAZSNFJDJSDSCAZGFGFCAVGSHACcIIFNSZMDCCDKBANGHABLFFHGVAIFHBSKADFBHAGGGcCSGDFNKSBAMZJZHASSAAD",
"ZKDnCFHHDMBBcBjnBCmVCGGBunlvxSSBvbVepvBHSZJDKBJFJAHFJDGDSKSJGBSCACDHSDmAJDCDCFVHFCSFFZKHASGFmnDKbFZDFAzGFZbZBACZSFAAGFCHHGFFGHKA",
"SLHBHJFSNvCmBNcHGSMMFBnhnchxxvNbVCMfHvCSDADAZVKIJGAGGGBGAHSFSASVxFCDBCCDFGNKHGZISCGFZLDAZSKAnSGVNBVMnAZHVVSMCCADNNVDNAFGNBVLFAGF",
"SIAnSZCKZZbKbkNCMNNxDbhNAgxmslxNZhVHGBFxmDBNbBKJDFFDASCSIAZDAVMSFVKHSHHHKHKPGDKFAFHGJHGSGJDFJDZZSCVMNSnZVZGFAbNbCDCHCFVDmGIDSZSS",
"CHncBCFAFZnxcbGlAmCmfbmFZfzAAvZVZbVnAxmmCZAbbKGCCJHBVJGFZPSCLDVLGLDCAJGGHFKGZFKSFSAFCHJJSAZZGBPASGFGJmMLILDmSVAAGVSGBDBFPGFASFAC",
"GZjkBDZNCcnCbVlsclhbgcHCMDMCxBGSvCbNblxNAbbBFSbHBFJJKJHFFCDIGZFGPGFHHVCDPGDMFLDBFIGFLPKAJPJGbAGDABVZLZNFSGAMBnvHDCANZbSHDSGHSMGD",
"mVCBlVZNBbNvBzlMMeiCvmKmmnbFmCBMvVHAmbBGBbMBFMSSZGSBSACHDFSHNVHJKDDKAnIGJZAFZFJDHGSZKGGGFFZSAFCDBVBCADSBZGVFnlBKGHVSNZJZAGZFAFDF",
"AMBnMDHMmNgfscgzkgkcCCCmDBGAVABvVzFNBBSBnDnAAAVDBHFZSZCSHLGGGLKFHSJnDZGFZCLKDDADZSDVGAGSDGASCLKBKDJSFbCZLmAZVAbGDMJSmSGGFLKJBFAF",
"cVbMClbMlmfhuZzsfiMgDFMGxBFDJHCFmSnvJCkVZgZCFSFZFLZMCDGNFDZACMDSGKAzALGGFJSDSFCDFHIGFSVJHSCJVADGBFHSBZDFDFFZLNFGFNmCVJVFFDHHGJIG",
"mkxbDBnbClqnfGjdmBsASCnMSzMFNNNVFSBFDNvnGCAZHINAGBnmMKSBFAJSFZMZBCCJJGmGASSKGSSKKJHFSKFAHSHSDJASCKVBDLKVFJCNZFKDBcmcIBZDSAJLFFMM",
"NJNMNMSMzyxVLlbBjNNBcBCbnnLmCbbxCxCANSGDZnDGGCZDHZvBxJFVGGZANLFFBZGHVNALSIKSBVZGFHGKNAHGBCKVAGCBDCmDGDDDCAMFZZxMCBNIDHVLGJHZGbMn",
"ZvsZAGmBmHVhadnasVdBCbLZSFmKAnNdNZbkDFBmDSSNBZFBLZCVFAKNBSGHFFSKSZGSZZICPSFDZHSLJGAZSZFCmNSDKHVZnSSVSCADGDKDnMVZmVSBSCLBZSZSZDMl",
"VkLZDvbSBckkfKACVNMxGDFSGxJGCnBMkBvCMVmGFCACCADGADZGDVVFZIHZFSZBZJJLDDFVFDJFCJSIHAAPDZDANHZJCJZNJABAFGSHFFZMAHZJZHIFAAVJPJDBZSBB",
"MCmDHSMBNVdAVvMnBhhPFGFGvcIDmkmzSVNnGGHFAAZbCGMIBVFFSFZVSDZGVASAZGLZZSJHFKGGFFAFSGKKFDGAGVVJSDSAFBnSKVSDDGGFFJFHFVKGJGAZDSASVKGL",
"nSABGbVSZSZMBBmFBnmAVABNzJAZVCVCZjBcZVDFHZCABcMAzGnVBADAFSHFZSHGBBCSDHDDDHAFZJFSDPJZZGSNFVGCZFDDZDSHHAVVCKBADJHCFGCBMDZZDFAAHVCV",
"ACbDSSDGCMfccvdCMnKASFBZvCmANzMVnnMAFCHAvGBBVVmvMlbIZNmKADCSLFAZDZGIVZSSAFIFGVJHZHGKZBSPGDJFPCHJLDZSHDZCAADMGJHDZGZSSDALZJLAAGFN",
"ZFSCJDKVhnnBBVDVMSBmnCAZbSBZxnvSdzJVMmZmxAbmLnMMbHZZAmnJHSAZKSHDDDADZDNCGGSFJVZFHFFDSGKSFSPFHGGGGFZPZHJFVFDGJFGKANDDFZASJJDFZHZJ",
"AGJIFGAMMmVJBbBCKACZNDJbnxzcbNSmnHHSBvAbNxCKCxBmhHnZMNFASSCAIFBFZKDFSHSFKFADGGVBPASFVAGCDFIGDGFCDFASSJFGSGFSCAGACZSKGHZHHCFHVFAJ",
"JALASJNvVAxmklSmADACZSndzBhvvIJVVZlbzmHBBmnNBMNcNjegBDZSbABHCDmJGFSVMSMHSHNDVFSGIJAFGAAGDIJFKDAJNZZJZDJZCGJZFKSBMHHPSDHJAKFCKDHZ",
"CGJGFCBxvZmzbznCMbSAVmbcBvvbdNBnIbzGBMVMvnvSvNjzmdwDClSBNHKGHZVPDDDSFFCSGVVZKGBJHDGGHVDSZSDCZZHZVISSDLSVDLKGDGDACCPFASHDGHVDFDJH",
"JHBGGAClNmxbgxknnVZMNBCZxfMxFAGBGASxxnzkzZZNsmMmnuFxcbLCIHDAVFKPHnGKHVDDNGZFGCGKHCVJVHAFGHVDAKDDKASFAAGSLGDCSSGGSSKNFDDGDJASJHZC",
"KHADDSDBjaghmbBpBmNGMBxvnmIZVFcNCCSnVnffBMjfmjvbZAmcJMNHDKVVHLSGBLKCVGBZZmbZHnZHLCFVbDSAGHJLSFSDVFHFZDSIHFSLHCHAASJLGVCZSSGFDZSD",
"JCGLACSVAVSnMCNflcFMCnSAFgZVAVjvVbmmVnldnzlgvuvNzmZvNVKmJKDFLSCFSSNKDABVMJGASPZSZASVSGNFNHAVIGVVDKHmDSKDLHZBFZCSFDGGDDDKJSHKJSHC",
"VZKANHDASKmvfMgMIHBNDBGVNVmxCBMMvvBgbkixBZcDfslbnHkZGSSAPDAFALVSSDFAAZBKZVMmGCDASPGLZAFGAZCHLJFGSFSJMCSGHHDDSJcGGCBDHADVFLFSZZSH",
"ZDANVNZCSBMmjxDPMDVSbAGbFvzNmnNBbvxMBcGczkmN8NMgnNpLCBZNCNZAZSMIDADHGSBKJDDISNADKFZFNFGDACJLFGDZADnASFFFSFZJAHJCBSDAMDJIGDFDHDGG",
"SDFDBnvGcmBnFbIGnnnvBCBhVglxMMANZAbnbVdBcaHjNZb4SdIJnkMAAVACSSJSDZDSDIHVDZJZHDBMDCBCFVFDGLPAVNSVMSSBDGDbGKSBDBDJAAAZMFADSDZDZSPS",
"AHHBZCSFSKDDBZAVMNCSZFVMMxkZMNjskvVMmmpaBAldSnutkMAMVnZBSHNZSmLBZZJCASFFZFVDANZVFAFHFDZJSGZPDADSSKHFDFHZZFKDVCAbGFVCzJASFDFSADKV",
"AVFSNCHANSMSHANvDFvvAZAAzVFmNlmhSvMlBAcazMDHVpSlsHbFbBZHMVZvVFAHJGCASGDBSDBANmZDAAZFNCIFHFHSCCGDSCZZSSAZFVSAFGNVSANcCZmIGBFJZHBl",
"GCCZAKSczmcZSNSBAcvBmVCBACVGbhllVCgvCmtJVZzbhh7bJDGNcCNcCZbmMDBDBnGAPACVMSCADNDACAAKDGAABADDBAKMHSSGVBZDBZHHZBCAFMbCNCHGNVASDnmJ",
"nJJNAZSNVGNNVVHJNBZznDVNDnBNmvAANbVmcbMxiCprxNnjbMNFABzBNbDAHZJACACJSmAFZBBDBZFmVVSGSSMHDSGNCKDKZBFGSCCAKDGZDAZzBbBCVCBmFSACbmZG",
"KVCHCSCFmmBGHGHNZHxSNGmMMZSmZkxlmpauaamzBVfPmjnjHBSCnmCFBcxSDADMmASMJNSGZANCVSGVJHAVDVMCVDZDJGSBGFNHJGDGCGAAFSZBnvABmGNCFAVmCBGB",
"NvMSFAMGVHFKLSZVCcBNcCvvVImFZvBvr9r+tyxgjAcBjBBMGSSMJFPBVmcIAZVGCVHKZACHAVVVFKBZCVHDSCLAGAGFFADJCCZFZSNZNHVSSAVcMbSckNNJHNZSCCNM",
"NDVALCSAmNLHFBCSAZSbnczSSASCNcVgys: vnygmmVmjmAmCBZMBJABBABcMMnNZFCDASVFAASSADZFDJJSGZDDSPDSASHSBHABSZCZJJDAAnMNnZMgcGNPVlNnmNmm",
"NMvKCBDAMZHSMZVBVCZDNCZKCxmxnVvbbuBCctzfvVANmNbVJKNCHKASGnxmZcZVGGIHVHHHSGGZbNFFMMDADGPHFZAAZGAFVAFGFCAJHZBVZnCBnCbSVxbVsslvchxS",
"cmZDBNDNBZSAnSCCZBHGAHLACAmMBBcmfsCt6AlpsbnzxgcBcnBGGGAVBhMMvBcAPVSVVmAASFFnBGSACZGAKAGCFDZFKALVACFJNSFCBNVFVFVzncVhvMbkpzqyBdBb",
"CHbnNVVBPmACMZcFBZDVCBFZZCmISCzktsjxtmqdKkmcfmNcmACAVcZSjSxAmBNHBKbACAHZFGSGHKGSVAbSAAFAAZFDGFZZNZBnMKnnVHHSGFvjjlVAxxcc0MwijGvz",
"VzbMvGVSHMZBZAMmMGMHZAMbVSBFAMBNkjhgdyxDcjgszMSZmVBSBLSCBvVVNIAFDDIVBKFDDFvADGKFDJFLLAAFFZZJLFSVBVCVJMbBGSVZVDZmgzZpuZDliz7xyajf",
"qnbbSZnGCzSNvflMSbDVccNCFbDCAnnnfVxVmZZcdAbsMlMnAHBCAZSZVLKVKVBDDKHCSSDLHGGGDGDCFDJDHnSHZJNFBVCNFZDCnbVSVFDAHFHBjnpfLHVnbp&*<Mlt",
"kgCSBBJClzCgNxvBBlDczmnFSNcMAvzbffkJDZuvxJnHCGDCFAADASCAMMSZFmGJNZCKZFDCSSVKDAGSJAIDGAANFmCCMZDSSCNABSnDZACZGVAcbMyZGfnl9=X+BVfp",
"hGxlpxJBNZVlzkAMbZvbShbCMFMDGnxhvNSMmxZcNNBlaCcCFCSAFBZNBDCMCFPSmFPDSFKSKDJAGKJANPAFDDZMVDmnnGGBCSSZBlMJbmGVnCCVCFFAjgm15,PzXIkv",
"VCvbjZSSVCZVNmrfhVNvlymGbMmGNCBBbAbiAnZnHZVzzBPCMNCCZSABFAACDGGAmVFLSJSHAABSFZAJKFDGDAMSBNCCFnVHBcNCKGZZACBCZHBGBmzxSDi8jNbnIh8h",
"kVcvDxBBSMhMCBlzmVDffVmZlVCFmSFPnvakAVmmNVghnLNAmVVVGKVHVAVFFGDJGJGKFZADGLFIVDHAHKSmSmcNSASmxMlVNNlSZBMvvVMmCSnnBbzSDmpgPHAj8lch",
"qFnvVZHnMmnvchzAFFNlxGCjvVKFASAFVkMBFxlDmNglDVMSDVKHJGVGSMFAVSGNGHZSCPPSCHJGBFKIFKZGDZlbBCmBSDnFnjNKbmzAMbglBvMmmnSZCbSSbnctsIMd",
"GzdSBMnNMlBMSvemczMbxBAZJSJDBSJVNHGFklDVABhHLFZNMbDACFFDAGLJSCDJJZLDPKKAFSAGGJDFDJvDCZNBnkAVCzhBNlLlkmBNMMjcNMACZZSlaDJFAKBZGAMN",
"vaScNAjxDvVCBncjnHCMZZVZbZDGmLDBPFMvMHPVcVxCSSvGNIKZKFALSDNSAKAGFZAFDAFNHZSSGVGSAFAAZZnzJZGMnfMCjmDzGcgbMNzxlISFMCBzKKFZHxmGHcNn",
"x59tybuzhhnHSkCMmHbjkcznNDDDZHVHCBZFVJAbGCBKNFFGDVGPJHVAHAZAHDAZZVDSABDGCMHSZFDFJSAJBZlNCNknvvHvSABkVxbbnnbbmVmDSBcBmZGACVHDZCNn",
"0>vq8vy-kDCFBBbbmBC1gVmAFMZDJNSSZHFSAASCmcbPDDFBFAJAVDbJFJHGFDAVHGCDSCCDFKDMJPHJCVZSMvlnbmzBVczmVZbAhZHMZJDZBkmMDSCCNJKNVSDZBvnZ",
"472hBM5>AZSVnHVMFBjdcMnINAHDMSLJVFGBJGVnVAFBCVADCSDCDFLPAFFJDGFJJBVDKGAFCCDHFGNCJSFVHzchmACJhhMDAVzszhMVACSMhnjFVFGCIDNCmDANBvnc",
"uM=pl7*m:BACVSxVzbNZAVCAVLLFAKCSZSADFNVDLKFAlVFFNGJDFmDDFSHGFHDFCcBASCDZCKPNGLASKDAVAVnZvnDngGCBmlnjgBfVZzNMZZDAAbZDSZBDHVACSMmu",
"VaN28hasDnHBcbfchMNlmVNCCGAVHHBAnGMcFNvKbSBnFHJSVLCVSKCHFGGZASPMnVCMmFDGDKAGPFCDVSZCZSbntNMVCSSvxxbahlABgdAmlBsHCANBZGBDJFBDNzcB",
"bvhxki$zaVmMVZbffGBlBSNCKHJCFZDZSZNAzlCSmJcmACSGHGGFVZFGADCAVSFBFZBBDFZHVGJKDGDSCZCCSFMMFFMFMJnMBVjtxKZczxvlunpJVZCDDJBDFMSFMbbN",
"BlDVMfpVcAZcADcvBliknxVKFZDJDBKLGMnZCBDSSDmCBFFMZSHCCJSFJDKSVJDAVAAAMGJJCSSLDSALSAVDDAJSAABBABbBGNMznHhNuZvVNdMVxlxGDDASVFADSvCc",
"mnshjrsknCAnGMZHDwDIlGDSNSAGCGGDCSScZHPFNJJAVLmZADZVHJSHFGBJIKACGmDnKSHZBSCFmFSDFHDGBBNDDHbVxpnSBllMmfjMhGvcklNkGVNMCHBZnSFBCCNH",
"lJMBsh:vHVcFzZVsAMHnZFCVJGMSVHVGNVxZBFIFZDFFSBZFHCAGZFDZZFCHADDSJFVCGZAAJCDSFDKJADDAZSSHAnAnmxFDjxfVjVNNpCtjkvbCDAnHSDGCVHAZbCAN",
"JSNSjgAZAmVFvHzsCkZMVAGAASDAAZBZSFZDBLDNSHGSCDKFBVKVBSAGKDJANASZFMVDMKAJFNNFGSSAGDJZGVAZABvFZJFSMxaqCCcgns>ilxcLASVGHDCFDDNAbnjC",
"MAbMCFVjNjmZZSkjAbVBFxDHAZDGMmZCGVCDGHCDGZIAZHAAGGGLKAHAZDFVZSPKSDHZHZnHCSHKNHVGCFKDIDNKCnDJBnZNCxuanvlxclclhNsmACCbnClcNHBbzASN",
"MCcVCxgdmMFMjvvxaKAVAZnZmAnHVVZAAGSZFZGDvSASZGMAAvmHVHFDZGAGSHHMZJGAJZSJHDJSSDGLVJHSDnNKAHCVBVbMbcxkclSkyVxtBlmKVAZNmmNNGFCmZmVM",
"AAHDASVFmGmvhvBAHFnSAmAAMVBVCZJCZSAGBDZVVCAMADVCDSGBVHGDSSSGGHVFIGZSJABGVMALAAPDNJCGSDKDCFDZVJFbjADaAvzMpZCDbCCVAJbZFlNnANMmCVmD",
"FSBVbxVnMzlnbFNcHsvGBZNFzAMDHHHVADZGZSGABxSzBAJHAZGAFmMSAZFHVHAGSCJISMCGHSHADFDZPAFMFIPGSIZZGVNNDSxvjlAnjlNmZJFAGNkVFFACjvbKFZSA",
"KVFNAkvAJCMpbNCZkkZPBzAMmHSCDDmCGNFKSCSNDCxnVDmmVDGMnASFGISFAGGGZSJDKSJHAVHFFCDALGHNJJFHJSNJKZFZAZzczajhbvGmIZmLGAGmDBmBcBGMCJKA",
"SABDNCSDbxhxSxCnlFFHNzMbCCCBLDGCZZHBAJSCVnAbvVnMFFVAAAFFSBSFGVBBGGCBGSADFDAADZFZZAHGJPKDZSICHJFNMxxndSabCbVCZNNZAFcmbNNGFBBGDZBK",
"VnmBMZBZkCxAZlAmtvCGMFNZFSZJSZVBFDDAZCZNZCAslCMCJDDLBSDDHZSHSSMVSNSPAGAKSDSKANVNAKSZSFSLGPDGHKDBGCcAZcBdNvCPADSDHSnCSVMNBGFSFVJJ",
"NmSZZjMVMmSmAiVdxNASBnsbGAHAFVBCPFKFGBVBSnzgCBkGDZZcmHFFZBCFCbVGCNGAGGHCmvDHBANVJAJFDDAKSDDSSZANNAbZGZFMnCAALIIZMJLZNVZNGAMDVGSA",
"MFBAzmKGmAvVjjDmCSSmxzVZGnFCcbZPLFHADVFGGbhMHHDFVSCCGBAZNLNADCxDHVADFHHBSVGDBDJAGHHVCLJFVDKVSAAGcvVBHBCNbKVDGKAAHZJJCVJKJDNZvSDA",
"SKZCFAZCDZBvBhMhKNnZZBzCVACDDFGVSFCCnCDSNFSFIDJMcKABCnKVZZNlNNADDNJZZCDBCDSNZBMnFBDNKGSSFFFPDZJFZbGPvZCBAVVIALGVAZIMCPFBMCmBmCNG",
"JCCHVDMmCZBVAcNDAASZFmZLSJDFHJACCJCBJZKDADBSSVnBKFAHSICVNDMVCNVMcHVBSCSVLDBMVNxmAJNJGSHLDBHJLDABMBCSVCZGCSKSZDSvFFDGADFDGGAZSFMV",
"FAVVNNZCVDBAZSMZZKBvbASAnmGZCFGAGZHmSVFZDCnCABDSGAVAmGSCVVLSzmFmnSNKmZGHCNzMCzvGDAFJVJFZDHKGHmMVSDDGJDSAMHHmCDVGAFSGZGZHMZGNMFHJ",
"PSFGZLDHvDMADCZFSVbSmMGHASDCHAAGZFHZSIFAGHBBDVAVDVFmCKVMZHGmcnBVBISBJDMVZCCAMCLGFDKHCSHDGSASKNDKFMDSZVGCVDJJFNZSKZVSFAPAcLHHGVCS",
"ACBBJVANANBZGSZSVNASZSGNSFMCJSKCFHDHGGCFFNNBMHSBDKAGFFNBFVBSbNZbmVnNZVDDNNVCGMDHCNDFGDGCmFGASMCGBDDLSFJDKSFZAZDSGFDSFJDADFSZPFJZ",
"SHBAGBADVFSFSGFCAGmSmSVAGDDHHADSJHCDHNFGHmbDNGZGGNNSFZMKmNCnmlsuBxCmNZDnAGVmZbHBmAGJGLFSJZBBbzZSHJDSSZHAFMFDKKZSSVNNLLZSKASGJFBS"
};
